<svg xmlns="http://www.w3.org/2000/svg" xmlns:xlink="http://www.w3.org/1999/xlink" viewBox="0 0 201.55 200.99"><defs/><circle cx="99.05" cy="100.49" r="90.22" fill="#fefcf3"/><defs><circle id="a" cx="99.05" cy="100.49" r="90.22"/></defs><clipPath id="b"><use overflow="visible" xlink:href="#a"/></clipPath><path fill="#facab2" d="M81.83 27.18c0-19.66-15.94-35.59-35.59-35.59-19.66 0-35.59 15.93-35.59 35.59 0 19.66 15.93 35.59 35.59 35.59 19.66 0 35.59-15.93 35.59-35.59m-59.96 0c0-13.46 10.91-24.37 24.37-24.37 13.45 0 24.37 10.91 24.37 24.37 0 13.45-10.92 24.37-24.37 24.37-13.46 0-24.37-10.92-24.37-24.37" clip-path="url(#b)"/><path fill="#004d7b" d="M220.37 120.81h-11.23c-.07 13.39-10.94 24.22-24.35 24.22-13.41 0-24.29-10.83-24.36-24.22H149.2c.07 19.58 15.97 35.44 35.58 35.44s35.51-15.85 35.59-35.44" clip-path="url(#b)"/><path fill="#00571f" d="M-4.94 150.92l8.64-6.38 15.94 22.7 16.51-21.39 20.27 21.39 16.51-18.76 16.89 18.76 18.39-22.52 7.13 6.01-25.52 31.52L73.4 163.4l-17.36 18.85L36.8 161.7l-17.54 22.05z" clip-path="url(#b)"/><path fill="#f4edbe" d="M108.75 36.41l-1.24 9.68 114.18 16.9 1.42-9.79z" clip-path="url(#b)"/><g><path d="M62.27 101.63c-1.22-1.6-3.25-2.83-5.65-2.83-3.84 0-6.37 3.08-6.37 6.54 0 3.54 2.74 6.54 6.58 6.54 2.03 0 4.09-1.02 5.44-2.83v-7.42zm.13 11.81c-1.6 1.43-3.75 2.23-6.12 2.23-1.77 0-3.63-.51-4.98-1.31-2.99-1.77-5.06-5.06-5.06-9.03s2.11-7.3 5.1-9.07c1.35-.8 2.99-1.26 4.85-1.26 2.23 0 4.39.68 6.2 2.23v-1.81h3.88v19.82H62.4v-1.8zM74.5 95.43h4.14l5.86 13.5 5.86-13.5h4.14l-8.61 19.82h-2.78zM102.72 95.43h4v19.82h-4V95.43zm1.98-9.7c1.48 0 2.66 1.18 2.66 2.66 0 1.48-1.18 2.61-2.66 2.61-1.48 0-2.61-1.14-2.61-2.61 0-1.48 1.14-2.66 2.61-2.66M118.12 85.31h4.01v29.94h-4.01zM147.85 101.63c-1.22-1.6-3.25-2.83-5.65-2.83-3.84 0-6.37 3.08-6.37 6.54 0 3.54 2.74 6.54 6.58 6.54 2.03 0 4.1-1.02 5.44-2.83v-7.42zm.13 11.81c-1.61 1.43-3.75 2.23-6.11 2.23-1.77 0-3.63-.51-4.98-1.31-2.99-1.77-5.06-5.06-5.06-9.03s2.11-7.3 5.11-9.07c1.35-.8 2.99-1.26 4.85-1.26 2.23 0 4.38.68 6.2 2.23v-1.81h3.88v19.82h-3.88v-1.8z"/></g><circle cx="99.05" cy="100.49" r="90.22" fill="none" stroke="#f4edbe" stroke-miterlimit="10" stroke-width="5"/></svg>