<?xml version="1.0" encoding="utf-8"?><!--Generator: Adobe Illustrator 24.3.0, SVG Export Plug-In . SVG Version: 6.00 Build 0)--><svg version="1.1" id="Calque_1" xmlns="http://www.w3.org/2000/svg" xmlns:xlink="http://www.w3.org/1999/xlink" x="0px" y="0px" viewBox="0 0 201.55 200.99" style="enable-background:new 0 0 201.55 200.99" xml:space="preserve"><style type="text/css">.st0{fill:#FEFCF3;} .st1{clip-path:url(#SVGID_2_);fill:#FACAB2;} .st2{clip-path:url(#SVGID_2_);fill:#004D7B;} .st3{clip-path:url(#SVGID_2_);fill:#00571F;} .st4{clip-path:url(#SVGID_2_);fill:#F4EDBE;} .st5{fill:none;stroke:#F4EDBE;stroke-width:5;stroke-miterlimit:10;}</style><circle class="st0" cx="99.05" cy="100.49" r="90.22"/><g><defs><circle id="SVGID_1_" cx="99.05" cy="100.49" r="90.22"/></defs><clipPath id="SVGID_2_"><use xlink:href="#SVGID_1_" style="overflow:visible"/></clipPath><path class="st1" d="M81.83,27.18c0-19.66-15.94-35.59-35.59-35.59c-19.66,0-35.59,15.93-35.59,35.59
		c0,19.66,15.93,35.59,35.59,35.59C65.9,62.77,81.83,46.84,81.83,27.18 M21.87,27.18c0-13.46,10.91-24.37,24.37-24.37
		c13.45,0,24.37,10.91,24.37,24.37c0,13.45-10.92,24.37-24.37,24.37C32.78,51.55,21.87,40.63,21.87,27.18"/><path class="st2" d="M220.37,120.81h-11.23c-0.07,13.39-10.94,24.22-24.35,24.22c-13.41,0-24.29-10.83-24.36-24.22H149.2
		c0.07,19.58,15.97,35.44,35.58,35.44S220.29,140.4,220.37,120.81"/><polygon class="st3" points="-4.94,150.92 3.7,144.54 19.64,167.24 36.15,145.85 56.42,167.24 72.93,148.48 89.82,167.24 
		108.21,144.72 115.34,150.73 89.82,182.25 73.4,163.4 56.04,182.25 36.8,161.7 19.26,183.75 	"/><polygon class="st4" points="108.75,36.41 107.51,46.09 221.69,62.99 223.11,53.2 	"/></g><g><g><path d="M62.27,101.63c-1.22-1.6-3.25-2.83-5.65-2.83c-3.84,0-6.37,3.08-6.37,6.54c0,3.54,2.74,6.54,6.58,6.54
			c2.03,0,4.09-1.02,5.44-2.83V101.63z M62.4,113.44c-1.6,1.43-3.75,2.23-6.12,2.23c-1.77,0-3.63-0.51-4.98-1.31
			c-2.99-1.77-5.06-5.06-5.06-9.03s2.11-7.3,5.1-9.07c1.35-0.8,2.99-1.26,4.85-1.26c2.23,0,4.39,0.68,6.2,2.23v-1.81h3.88v19.82
			H62.4V113.44z"/></g><polygon points="74.5,95.43 78.64,95.43 84.5,108.93 90.36,95.43 94.5,95.43 85.89,115.25 83.11,115.25 	"/><path d="M102.72,95.43h4v19.82h-4V95.43z M104.7,85.73c1.48,0,2.66,1.18,2.66,2.66c0,1.48-1.18,2.61-2.66,2.61
		c-1.48,0-2.61-1.14-2.61-2.61C102.09,86.91,103.23,85.73,104.7,85.73"/><rect x="118.12" y="85.31" width="4.01" height="29.94"/><path d="M147.85,101.63c-1.22-1.6-3.25-2.83-5.65-2.83c-3.84,0-6.37,3.08-6.37,6.54c0,3.54,2.74,6.54,6.58,6.54
		c2.03,0,4.1-1.02,5.44-2.83V101.63z M147.98,113.44c-1.61,1.43-3.75,2.23-6.11,2.23c-1.77,0-3.63-0.51-4.98-1.31
		c-2.99-1.77-5.06-5.06-5.06-9.03s2.11-7.3,5.11-9.07c1.35-0.8,2.99-1.26,4.85-1.26c2.23,0,4.38,0.68,6.2,2.23v-1.81h3.88v19.82
		h-3.88V113.44z"/></g><circle class="st5" cx="99.05" cy="100.49" r="90.22"/></svg>