<?xml version="1.0" encoding="utf-8"?>
<!-- Generator: Adobe Illustrator 24.3.0, SVG Export Plug-In . SVG Version: 6.00 Build 0)  -->
<svg version="1.1" id="Calque_1" xmlns="http://www.w3.org/2000/svg" xmlns:xlink="http://www.w3.org/1999/xlink" x="0px" y="0px"
	 viewBox="0 0 291.98 155.94" style="enable-background:new 0 0 291.98 155.94;" xml:space="preserve">
<g>
	<g>
		<g>
			<path d="M52.54,76.01c-3.05-3.99-8.1-7.04-14.09-7.04c-9.57,0-15.87,7.67-15.87,16.29c0,8.83,6.83,16.3,16.4,16.3
				c5.05,0,10.2-2.53,13.56-7.05V76.01z M52.86,105.45c-3.99,3.56-9.35,5.56-15.24,5.56c-4.41,0-9.04-1.26-12.4-3.26
				c-7.46-4.42-12.61-12.62-12.61-22.5s5.26-18.18,12.72-22.6c3.36-1.99,7.46-3.15,12.09-3.15c5.57,0,10.93,1.69,15.45,5.57v-4.52
				h9.67v49.4h-9.67V105.45z"/>
		</g>
		<polygon points="83.03,60.55 93.33,60.55 107.94,94.2 122.55,60.55 132.86,60.55 111.41,109.96 104.47,109.96 		"/>
		<path d="M153.36,60.55h9.98v49.4h-9.98V60.55z M158.29,36.38c3.68,0,6.63,2.94,6.63,6.63c0,3.68-2.95,6.51-6.63,6.51
			c-3.68,0-6.52-2.83-6.52-6.51C151.77,39.32,154.61,36.38,158.29,36.38"/>
		<rect x="191.73" y="35.33" width="9.99" height="74.62"/>
		<path d="M265.82,76.01c-3.04-3.99-8.09-7.04-14.07-7.04c-9.58,0-15.88,7.67-15.88,16.29c0,8.83,6.83,16.3,16.39,16.3
			c5.06,0,10.21-2.53,13.56-7.05V76.01z M266.15,105.45c-4.01,3.56-9.36,5.56-15.24,5.56c-4.42,0-9.05-1.26-12.42-3.26
			c-7.46-4.42-12.62-12.62-12.62-22.5s5.26-18.18,12.73-22.6c3.36-1.99,7.46-3.15,12.09-3.15c5.57,0,10.93,1.69,15.46,5.57v-4.52
			h9.67v49.4h-9.67V105.45z"/>
	</g>
</g>
</svg>
