<?xml version="1.0" encoding="utf-8"?>
<!-- Generator: Adobe Illustrator 24.3.0, SVG Export Plug-In . SVG Version: 6.00 Build 0)  -->
<svg version="1.1" id="Calque_1" xmlns="http://www.w3.org/2000/svg" xmlns:xlink="http://www.w3.org/1999/xlink" x="0px" y="0px"
	 viewBox="0 0 192 195" style="enable-background:new 0 0 192 195;" xml:space="preserve">
<style type="text/css">
	.st0{fill:#004D7B;}
	.st1{fill:#FEFCF3;}
</style>
<circle class="st0" cx="97" cy="97.5" r="90"/>
<g>
	<g>
		<g>
			<path class="st1" d="M60.56,98.63c-1.21-1.59-3.22-2.8-5.6-2.8c-3.8,0-6.31,3.05-6.31,6.48c0,3.51,2.72,6.48,6.52,6.48
				c2.01,0,4.05-1.01,5.39-2.8V98.63z M60.68,110.33c-1.59,1.41-3.72,2.21-6.06,2.21c-1.75,0-3.59-0.5-4.93-1.29
				c-2.97-1.76-5.01-5.02-5.01-8.94s2.09-7.23,5.06-8.98c1.34-0.79,2.97-1.25,4.81-1.25c2.21,0,4.35,0.67,6.14,2.21v-1.8h3.84v19.64
				h-3.84V110.33z"/>
		</g>
		<polygon class="st1" points="72.68,92.48 76.77,92.48 82.58,105.86 88.39,92.48 92.49,92.48 83.96,112.12 81.2,112.12 		"/>
		<path class="st1" d="M100.64,92.48h3.97v19.64h-3.97V92.48z M102.6,82.87c1.46,0,2.64,1.17,2.64,2.63c0,1.46-1.17,2.59-2.64,2.59
			c-1.46,0-2.59-1.13-2.59-2.59C100.01,84.04,101.14,82.87,102.6,82.87"/>
		<rect x="115.89" y="82.46" class="st1" width="3.97" height="29.67"/>
		<path class="st1" d="M145.35,98.63c-1.21-1.59-3.22-2.8-5.59-2.8c-3.81,0-6.31,3.05-6.31,6.48c0,3.51,2.72,6.48,6.52,6.48
			c2.01,0,4.06-1.01,5.39-2.8V98.63z M145.48,110.33c-1.59,1.41-3.72,2.21-6.06,2.21c-1.76,0-3.6-0.5-4.94-1.29
			c-2.97-1.76-5.02-5.02-5.02-8.94s2.09-7.23,5.06-8.98c1.34-0.79,2.97-1.25,4.8-1.25c2.21,0,4.34,0.67,6.14,2.21v-1.8h3.84v19.64
			h-3.84V110.33z"/>
	</g>
</g>
</svg>
