<?xml version="1.0" encoding="utf-8"?>
<!-- Generator: Adobe Illustrator 24.3.0, SVG Export Plug-In . SVG Version: 6.00 Build 0)  -->
<svg version="1.1" id="Calque_1" xmlns="http://www.w3.org/2000/svg" xmlns:xlink="http://www.w3.org/1999/xlink" x="0px" y="0px"
	 viewBox="0 0 201.55 200.99" style="enable-background:new 0 0 201.55 200.99;" xml:space="preserve">
<style type="text/css">
	.st0{fill:#FDF9E4;}
	.st1{fill:none;stroke:#F4EDBE;stroke-width:5;stroke-miterlimit:10;}
	.st2{fill:#F4EDBE;}
</style>
<circle class="st0" cx="100.78" cy="99.29" r="90"/>
<circle class="st1" cx="100.78" cy="99.29" r="90.22"/>
<g>
	<g>
		<path d="M64.34,100.42c-1.21-1.59-3.22-2.8-5.6-2.8c-3.8,0-6.31,3.05-6.31,6.48c0,3.51,2.72,6.48,6.52,6.48
			c2.01,0,4.05-1.01,5.39-2.8V100.42z M64.46,112.12c-1.59,1.41-3.72,2.21-6.06,2.21c-1.75,0-3.59-0.5-4.93-1.29
			c-2.97-1.76-5.01-5.02-5.01-8.94c0-3.93,2.09-7.23,5.06-8.98c1.34-0.79,2.97-1.25,4.81-1.25c2.21,0,4.35,0.67,6.14,2.21v-1.8h3.84
			v19.64h-3.84V112.12z"/>
	</g>
	<polygon points="76.46,94.27 80.55,94.27 86.36,107.65 92.17,94.27 96.26,94.27 87.74,113.91 84.98,113.91 	"/>
	<path d="M104.41,94.27h3.97v19.64h-3.97V94.27z M106.37,84.66c1.46,0,2.64,1.17,2.64,2.63c0,1.46-1.17,2.59-2.64,2.59
		c-1.46,0-2.59-1.13-2.59-2.59C103.78,85.83,104.91,84.66,106.37,84.66"/>
	<rect x="119.67" y="84.25" width="3.97" height="29.67"/>
	<path d="M149.12,100.42c-1.21-1.59-3.22-2.8-5.59-2.8c-3.81,0-6.31,3.05-6.31,6.48c0,3.51,2.72,6.48,6.52,6.48
		c2.01,0,4.06-1.01,5.39-2.8V100.42z M149.25,112.12c-1.59,1.41-3.72,2.21-6.06,2.21c-1.76,0-3.6-0.5-4.94-1.29
		c-2.97-1.76-5.02-5.02-5.02-8.94c0-3.93,2.09-7.23,5.06-8.98c1.34-0.79,2.97-1.25,4.8-1.25c2.21,0,4.34,0.67,6.14,2.21v-1.8h3.84
		v19.64h-3.84V112.12z"/>
</g>
<circle class="st2" cx="100.78" cy="99.5" r="90"/>
<g>
	<g>
		<path d="M64.34,100.63c-1.21-1.59-3.22-2.8-5.6-2.8c-3.8,0-6.31,3.05-6.31,6.48c0,3.51,2.72,6.48,6.52,6.48
			c2.01,0,4.05-1.01,5.39-2.8V100.63z M64.46,112.33c-1.59,1.41-3.72,2.21-6.06,2.21c-1.75,0-3.59-0.5-4.93-1.29
			c-2.97-1.76-5.01-5.02-5.01-8.94s2.09-7.23,5.06-8.98c1.34-0.79,2.97-1.25,4.81-1.25c2.21,0,4.35,0.67,6.14,2.21v-1.8h3.84v19.64
			h-3.84V112.33z"/>
	</g>
	<polygon points="76.46,94.48 80.55,94.48 86.36,107.86 92.17,94.48 96.26,94.48 87.74,114.12 84.98,114.12 	"/>
	<path d="M104.41,94.48h3.97v19.64h-3.97V94.48z M106.37,84.87c1.46,0,2.64,1.17,2.64,2.63c0,1.46-1.17,2.59-2.64,2.59
		c-1.46,0-2.59-1.13-2.59-2.59C103.78,86.04,104.91,84.87,106.37,84.87"/>
	<rect x="119.67" y="84.46" width="3.97" height="29.67"/>
	<path d="M149.12,100.63c-1.21-1.59-3.22-2.8-5.59-2.8c-3.81,0-6.31,3.05-6.31,6.48c0,3.51,2.72,6.48,6.52,6.48
		c2.01,0,4.06-1.01,5.39-2.8V100.63z M149.25,112.33c-1.59,1.41-3.72,2.21-6.06,2.21c-1.76,0-3.6-0.5-4.94-1.29
		c-2.97-1.76-5.02-5.02-5.02-8.94s2.09-7.23,5.06-8.98c1.34-0.79,2.97-1.25,4.8-1.25c2.21,0,4.34,0.67,6.14,2.21v-1.8h3.84v19.64
		h-3.84V112.33z"/>
</g>
</svg>
