<svg width="291.98" height="155.94" xmlns="http://www.w3.org/2000/svg">

 <g>
  <title>background</title>
  <rect fill="none" id="canvas_background" height="402" width="582" y="-1" x="-1"/>
 </g>
 <g>
  <title fill="#ffffff">Layer 1</title>
  <path fill="#ffffff" id="svg_4" d="m52.54,76.01c-3.05,-3.99 -8.1,-7.04 -14.09,-7.04c-9.57,0 -15.87,7.67 -15.87,16.29c0,8.83 6.83,16.3 16.4,16.3c5.05,0 10.2,-2.53 13.56,-7.05l0,-18.5zm0.32,29.44c-3.99,3.56 -9.35,5.56 -15.24,5.56c-4.41,0 -9.04,-1.26 -12.4,-3.26c-7.46,-4.42 -12.61,-12.62 -12.61,-22.5s5.26,-18.18 12.72,-22.6c3.36,-1.99 7.46,-3.15 12.09,-3.15c5.57,0 10.93,1.69 15.45,5.57l0,-4.52l9.67,0l0,49.4l-9.67,0l0,-4.5l-0.01,0z"/>
  <polygon fill="#ffffff" id="svg_5" points="83.03,60.55 93.33,60.55 107.94,94.2 122.55,60.55 132.86,60.55 111.41,109.96 104.47,109.96   "/>
  <path fill="#ffffff" id="svg_6" d="m153.36,60.55l9.98,0l0,49.4l-9.98,0l0,-49.4zm4.93,-24.17c3.68,0 6.63,2.94 6.63,6.63c0,3.68 -2.95,6.51 -6.63,6.51c-3.68,0 -6.52,-2.83 -6.52,-6.51c0,-3.69 2.84,-6.63 6.52,-6.63"/>
  <rect fill="#ffffff" id="svg_7" height="74.62" width="9.99" y="35.33" x="191.73"/>
  <path fill="#ffffff" id="svg_8" d="m265.82,76.01c-3.04,-3.99 -8.09,-7.04 -14.07,-7.04c-9.58,0 -15.88,7.67 -15.88,16.29c0,8.83 6.83,16.3 16.39,16.3c5.06,0 10.21,-2.53 13.56,-7.05l0,-18.5zm0.33,29.44c-4.01,3.56 -9.36,5.56 -15.24,5.56c-4.42,0 -9.05,-1.26 -12.42,-3.26c-7.46,-4.42 -12.62,-12.62 -12.62,-22.5s5.26,-18.18 12.73,-22.6c3.36,-1.99 7.46,-3.15 12.09,-3.15c5.57,0 10.93,1.69 15.46,5.57l0,-4.52l9.67,0l0,49.4l-9.67,0l0,-4.5z"/>
 </g>
</svg>